<mxfile host="65bd71144e">
    <diagram id="lqvfp8QytdIjXrP9-uOv" name="PÃ¡gina-1">
        <mxGraphModel dx="798" dy="610" grid="1" gridSize="10" guides="1" tooltips="1" connect="1" arrows="1" fold="1" page="1" pageScale="1" pageWidth="127700" pageHeight="167700" math="0" shadow="0">
            <root>
                <mxCell id="0"/>
                <mxCell id="1" parent="0"/>
                <mxCell id="6" value="" style="edgeStyle=none;html=1;" edge="1" parent="1" source="4" target="5">
                    <mxGeometry relative="1" as="geometry"/>
                </mxCell>
                <mxCell id="4" value="INICIO" style="ellipse;whiteSpace=wrap;html=1;fillColor=#1ba1e2;fontColor=#ffffff;strokeColor=#006EAF;" vertex="1" parent="1">
                    <mxGeometry x="52980" y="10" width="120" height="80" as="geometry"/>
                </mxCell>
                <mxCell id="7" style="edgeStyle=none;html=1;" edge="1" parent="1" source="5" target="8">
                    <mxGeometry relative="1" as="geometry">
                        <mxPoint x="53040" y="280" as="targetPoint"/>
                    </mxGeometry>
                </mxCell>
                <mxCell id="5" value="Produtos" style="shape=parallelogram;perimeter=parallelogramPerimeter;whiteSpace=wrap;html=1;fixedSize=1;fillColor=#60a917;fontColor=#ffffff;strokeColor=#2D7600;" vertex="1" parent="1">
                    <mxGeometry x="52980" y="130" width="120" height="60" as="geometry"/>
                </mxCell>
                <mxCell id="9" style="edgeStyle=none;html=1;" edge="1" parent="1" source="8">
                    <mxGeometry relative="1" as="geometry">
                        <mxPoint x="53040" y="390" as="targetPoint"/>
                    </mxGeometry>
                </mxCell>
                <mxCell id="8" value="precio de productos" style="shape=document;whiteSpace=wrap;html=1;boundedLbl=1;fillColor=#d80073;fontColor=#ffffff;strokeColor=#A50040;" vertex="1" parent="1">
                    <mxGeometry x="52980" y="250" width="120" height="80" as="geometry"/>
                </mxCell>
                <mxCell id="11" style="edgeStyle=none;html=1;" edge="1" parent="1" source="10">
                    <mxGeometry relative="1" as="geometry">
                        <mxPoint x="53160" y="500" as="targetPoint"/>
                        <Array as="points">
                            <mxPoint x="53160" y="430"/>
                        </Array>
                    </mxGeometry>
                </mxCell>
                <mxCell id="13" style="edgeStyle=none;html=1;" edge="1" parent="1" source="10">
                    <mxGeometry relative="1" as="geometry">
                        <mxPoint x="52880" y="470" as="targetPoint"/>
                        <Array as="points">
                            <mxPoint x="52880" y="430"/>
                        </Array>
                    </mxGeometry>
                </mxCell>
                <mxCell id="10" value="c&amp;lt;b&amp;lt;a" style="rhombus;whiteSpace=wrap;html=1;fillColor=#a20025;fontColor=#ffffff;strokeColor=#6F0000;" vertex="1" parent="1">
                    <mxGeometry x="52980" y="390" width="120" height="80" as="geometry"/>
                </mxCell>
                <mxCell id="23" style="edgeStyle=none;html=1;" edge="1" parent="1" source="12">
                    <mxGeometry relative="1" as="geometry">
                        <mxPoint x="52660" y="1000" as="targetPoint"/>
                        <Array as="points">
                            <mxPoint x="53160" y="880"/>
                            <mxPoint x="52660" y="880"/>
                        </Array>
                    </mxGeometry>
                </mxCell>
                <mxCell id="12" value="El precio a pagar es la suma de c+b" style="rounded=0;whiteSpace=wrap;html=1;fillColor=#a0522d;fontColor=#ffffff;strokeColor=#6D1F00;" vertex="1" parent="1">
                    <mxGeometry x="53100" y="500" width="120" height="60" as="geometry"/>
                </mxCell>
                <mxCell id="15" style="edgeStyle=none;html=1;" edge="1" parent="1" source="14">
                    <mxGeometry relative="1" as="geometry">
                        <mxPoint x="52690" y="580" as="targetPoint"/>
                        <Array as="points">
                            <mxPoint x="52720" y="510"/>
                            <mxPoint x="52690" y="510"/>
                        </Array>
                    </mxGeometry>
                </mxCell>
                <mxCell id="16" style="edgeStyle=none;html=1;" edge="1" parent="1" source="14">
                    <mxGeometry relative="1" as="geometry">
                        <mxPoint x="53000" y="600" as="targetPoint"/>
                        <Array as="points">
                            <mxPoint x="53000" y="510"/>
                        </Array>
                    </mxGeometry>
                </mxCell>
                <mxCell id="14" value="a&amp;lt;c&amp;lt;b" style="rhombus;whiteSpace=wrap;html=1;fillColor=#a20025;fontColor=#ffffff;strokeColor=#6F0000;" vertex="1" parent="1">
                    <mxGeometry x="52820" y="470" width="120" height="80" as="geometry"/>
                </mxCell>
                <mxCell id="17" value="El precio a pagar es la suma de a+c" style="rounded=0;whiteSpace=wrap;html=1;fillColor=#a0522d;fontColor=#ffffff;strokeColor=#6D1F00;" vertex="1" parent="1">
                    <mxGeometry x="52940" y="600" width="120" height="60" as="geometry"/>
                </mxCell>
                <mxCell id="19" style="edgeStyle=none;html=1;" edge="1" parent="1" source="18">
                    <mxGeometry relative="1" as="geometry">
                        <mxPoint x="52820" y="700" as="targetPoint"/>
                        <Array as="points">
                            <mxPoint x="52820" y="620"/>
                        </Array>
                    </mxGeometry>
                </mxCell>
                <mxCell id="21" style="edgeStyle=none;html=1;exitX=0;exitY=0.5;exitDx=0;exitDy=0;" edge="1" parent="1" source="18">
                    <mxGeometry relative="1" as="geometry">
                        <mxPoint x="52500" y="730" as="targetPoint"/>
                        <Array as="points">
                            <mxPoint x="52520" y="620"/>
                            <mxPoint x="52500" y="620"/>
                        </Array>
                    </mxGeometry>
                </mxCell>
                <mxCell id="18" value="b&amp;lt;a&amp;lt;c" style="rhombus;whiteSpace=wrap;html=1;fillColor=#a20025;fontColor=#ffffff;strokeColor=#6F0000;" vertex="1" parent="1">
                    <mxGeometry x="52630" y="580" width="130" height="80" as="geometry"/>
                </mxCell>
                <mxCell id="20" value="El precio a pagar es la suma de a+b" style="rounded=0;whiteSpace=wrap;html=1;fillColor=#a0522d;fontColor=#ffffff;strokeColor=#6D1F00;" vertex="1" parent="1">
                    <mxGeometry x="52760" y="700" width="120" height="60" as="geometry"/>
                </mxCell>
                <mxCell id="22" value="Al parecer ingresaste algo mal" style="rounded=0;whiteSpace=wrap;html=1;fillColor=#a0522d;fontColor=#ffffff;strokeColor=#6D1F00;" vertex="1" parent="1">
                    <mxGeometry x="52450" y="730" width="120" height="60" as="geometry"/>
                </mxCell>
                <mxCell id="24" value="" style="endArrow=none;html=1;" edge="1" parent="1">
                    <mxGeometry width="50" height="50" relative="1" as="geometry">
                        <mxPoint x="52980" y="880" as="sourcePoint"/>
                        <mxPoint x="53000" y="670" as="targetPoint"/>
                        <Array as="points">
                            <mxPoint x="53000" y="880"/>
                        </Array>
                    </mxGeometry>
                </mxCell>
                <mxCell id="25" value="" style="endArrow=none;html=1;" edge="1" parent="1">
                    <mxGeometry width="50" height="50" relative="1" as="geometry">
                        <mxPoint x="52800" y="880" as="sourcePoint"/>
                        <mxPoint x="52820" y="770" as="targetPoint"/>
                        <Array as="points">
                            <mxPoint x="52820" y="880"/>
                        </Array>
                    </mxGeometry>
                </mxCell>
                <mxCell id="26" value="" style="endArrow=none;html=1;" edge="1" parent="1">
                    <mxGeometry width="50" height="50" relative="1" as="geometry">
                        <mxPoint x="52680" y="880" as="sourcePoint"/>
                        <mxPoint x="52500" y="790" as="targetPoint"/>
                        <Array as="points">
                            <mxPoint x="52500" y="880"/>
                        </Array>
                    </mxGeometry>
                </mxCell>
                <mxCell id="28" style="edgeStyle=none;html=1;exitX=0.508;exitY=0.875;exitDx=0;exitDy=0;exitPerimeter=0;" edge="1" parent="1" source="27">
                    <mxGeometry relative="1" as="geometry">
                        <mxPoint x="52670" y="1150" as="targetPoint"/>
                    </mxGeometry>
                </mxCell>
                <mxCell id="27" value="El precio de la rebaja es (A)" style="shape=document;whiteSpace=wrap;html=1;boundedLbl=1;fillColor=#647687;fontColor=#ffffff;strokeColor=#314354;" vertex="1" parent="1">
                    <mxGeometry x="52610" y="1000" width="120" height="80" as="geometry"/>
                </mxCell>
                <mxCell id="29" value="FIN" style="ellipse;whiteSpace=wrap;html=1;fillColor=#1ba1e2;fontColor=#ffffff;strokeColor=#006EAF;" vertex="1" parent="1">
                    <mxGeometry x="52610" y="1150" width="120" height="80" as="geometry"/>
                </mxCell>
            </root>
        </mxGraphModel>
    </diagram>
</mxfile>